<svg xmlns="http://www.w3.org/2000/svg" width="192" height="192" fill="#5eead4" viewBox="0 0 256 256"><rect width="256" height="256" fill="none"></rect><rect x="60" y="56" width="40" height="144" rx="8" fill="none" stroke="#5eead4" stroke-linecap="round" stroke-linejoin="round" stroke-width="24"></rect><rect x="156" y="56" width="40" height="144" rx="8" fill="none" stroke="#5eead4" stroke-linecap="round" stroke-linejoin="round" stroke-width="24"></rect><path d="M196,80h28a8,8,0,0,1,8,8v80a8,8,0,0,1-8,8H196" fill="none" stroke="#5eead4" stroke-linecap="round" stroke-linejoin="round" stroke-width="24"></path><path d="M60,176H32a8,8,0,0,1-8-8V88a8,8,0,0,1,8-8H60" fill="none" stroke="#5eead4" stroke-linecap="round" stroke-linejoin="round" stroke-width="24"></path><line x1="100" y1="128" x2="156" y2="128" fill="none" stroke="#5eead4" stroke-linecap="round" stroke-linejoin="round" stroke-width="24"></line><line x1="232" y1="128" x2="244" y2="128" fill="none" stroke="#5eead4" stroke-linecap="round" stroke-linejoin="round" stroke-width="24"></line><line x1="12" y1="128" x2="24" y2="128" fill="none" stroke="#5eead4" stroke-linecap="round" stroke-linejoin="round" stroke-width="24"></line></svg>