<svg width="268" height="71" viewBox="0 0 268 71" fill="none" xmlns="http://www.w3.org/2000/svg">
<g filter="url(#filter0_i_11_5)">
<path d="M29.57 10.04H35.85V15.4801L38.65 30.08L41.53 16.1601V10.04H47.81V38.04L43.65 33.1601V16.84H43.57L40.37 38.04H36.69L33.49 16.84H33.41V32.7601L29.57 38.04V10.04Z" fill="#5EEAD4"/>
<path d="M61.4534 38.84C59.2934 38.84 57.6401 38.2267 56.4934 37C55.3468 35.7733 54.7734 34.04 54.7734 31.8V17.08C54.7734 14.84 55.3468 13.1067 56.4934 11.88C57.6401 10.6533 59.2934 10.04 61.4534 10.04C63.6134 10.04 65.2668 10.6533 66.4134 11.88C67.5601 13.1067 68.1334 14.84 68.1334 17.08V31.8C68.1334 34.04 67.5601 35.7733 66.4134 37C65.2668 38.2267 63.6134 38.84 61.4534 38.84ZM61.4534 32.12C62.9734 32.12 63.7334 33.92 63.7334 32.08V16.8C63.7334 14.96 62.9734 16.72 61.4534 16.72C59.9334 16.72 59.1734 14.96 59.1734 16.8V32.08C59.1734 33.92 59.9334 32.12 61.4534 32.12Z" fill="#5EEAD4"/>
<path d="M75.109 10.66L81.07 12.76L84.909 25.92H84.9891V13.16L88.909 9.16V34.7199L83.57 34.44L79.109 16.72H79.0291L78.57 34.7199L75.109 37.16V10.66Z" fill="#5EEAD4"/>
<path d="M101.899 38.84C99.766 38.84 98.1527 38.24 97.0594 37.04C95.966 35.8133 95.4194 34.0667 95.4194 31.8V30.2L99.5794 32.12C99.5794 33.9333 100.339 34.84 101.859 34.84C102.606 34.84 103.166 34.6267 103.539 34.2C103.939 33.7467 104.139 33.0267 104.139 32.04C104.139 30.8667 103.873 29.84 103.339 28.96C102.806 28.0533 101.819 26.9733 100.379 25.72C98.566 24.12 97.2994 22.68 96.5794 21.4C95.8594 20.0933 95.4994 18.6267 95.4994 17C95.4994 14.7867 96.0594 13.08 97.1794 11.88C98.2994 10.6533 99.926 10.04 102.059 10.04C104.166 10.04 105.753 10.6533 106.819 11.88C107.913 13.08 108.459 14.8133 108.459 17.08V18.24L104.299 16.8C104.299 15.84 104.113 15.1467 103.739 14.72C103.366 14.2667 102.819 14.04 102.099 14.04C100.633 14.04 99.8994 14.9333 99.8994 16.72C99.8994 17.7333 100.166 18.68 100.699 19.56C101.259 20.44 102.259 21.5067 103.699 22.76C105.539 24.36 106.806 25.8133 107.499 27.12C108.193 28.4267 108.539 29.96 108.539 31.72C108.539 34.0133 107.966 35.7733 106.819 37C105.699 38.2267 104.059 38.84 101.899 38.84Z" fill="#5EEAD4"/>
<path d="M118.502 14.44H110.07L113.57 10.66L127.502 10.44L130.07 14.44H122.902V36L118.502 38.44V14.44Z" fill="#5EEAD4"/>
<path d="M133.632 10.44H145.632L142.57 14.72L138.032 14.44V21.84H142.57V25.72L138.032 25.84V34.44L142.57 34.2L145.632 38.44H133.632V10.44Z" fill="#5EEAD4"/>
<path d="M152.164 10.44H158.684C160.95 10.44 162.604 10.9733 163.644 12.04C164.684 13.08 165.204 14.6933 165.204 16.88V18.6C165.204 21.5067 164.244 23.3467 162.324 24.12V24.2C163.39 24.52 164.137 25.1733 164.564 26.16C165.017 27.1467 165.244 28.4667 165.244 30.12V35.04C165.244 35.84 165.19 35.4933 165.244 36C165.03 35.52 165.297 36.48 165.244 36L160.924 38.84C160.764 38.3867 160.977 37.56 160.924 37.16C160.87 36.76 160.844 36.04 160.844 35V29.88C160.844 28.6 160.63 27.7067 160.204 27.2C159.804 26.6933 159.097 26.44 158.084 26.44H156.564V36L152.164 38.44V10.44ZM158.164 22.44C159.044 22.44 159.697 22.2133 160.124 21.76C160.577 21.3067 160.804 20.5467 160.804 19.48V17.32C160.804 16.3067 160.617 15.5733 160.244 15.12C159.897 14.6667 159.337 14.44 158.564 14.44H156.564V22.44H158.164Z" fill="#5EEAD4"/>
<path d="M187.263 38.44C185.129 38.44 183.503 37.84 182.383 36.64C181.263 35.4134 180.703 33.6667 180.703 31.4V16.68C180.703 14.4134 181.263 12.68 182.383 11.48C183.503 10.2534 185.129 9.64002 187.263 9.64002C189.396 9.64002 191.023 10.2534 192.143 11.48C193.263 12.68 193.823 14.4134 193.823 16.68L189.663 19.08V16.4C189.663 14.56 188.903 13.64 187.383 13.64C185.863 13.64 185.103 14.56 185.103 16.4V31.72C185.103 33.5334 185.863 34.44 187.383 34.44C188.903 34.44 189.663 33.5334 189.663 31.72V26.24V25.44L187.463 22.24H193.823V31.4C193.823 33.6667 193.263 35.4134 192.143 36.64C191.023 37.84 189.396 38.44 187.263 38.44Z" fill="#5EEAD4"/>
<path d="M205.782 26.52L200.462 10.44L205.782 13.64L208.142 20.72H208.222L210.182 13.64L215.502 10.44L210.182 26.52V36L205.782 38.44V26.52Z" fill="#5EEAD4"/>
<path d="M220.19 10.84H226.47V16.2801L229.27 30.88L232.15 16.9601V10.84H238.43V38.84L234.27 33.9601V17.64H234.19L230.99 38.84H227.31L224.11 17.64H224.03V33.5601L220.19 38.84V10.84Z" fill="#5EEAD4"/>
</g>
<g filter="url(#filter1_f_11_5)">
<path d="M74.516 45.64H76.9L78.724 56.84H76.964L76.644 54.616V54.648H74.644L74.324 56.84H72.692L74.516 45.64ZM76.436 53.128L75.652 47.592H75.62L74.852 53.128H76.436ZM83.6266 57C82.784 57 82.1386 56.76 81.6906 56.28C81.2533 55.8 81.0346 55.1227 81.0346 54.248V48.232C81.0346 47.3573 81.2533 46.68 81.6906 46.2C82.1386 45.72 82.784 45.48 83.6266 45.48C84.4693 45.48 85.1093 45.72 85.5466 46.2C85.9946 46.68 86.2186 47.3573 86.2186 48.232V49.416H84.5546V48.12C84.5546 47.4267 84.2613 47.08 83.6746 47.08C83.088 47.08 82.7946 47.4267 82.7946 48.12V54.376C82.7946 55.0587 83.088 55.4 83.6746 55.4C84.2613 55.4 84.5546 55.0587 84.5546 54.376V52.664H86.2186V54.248C86.2186 55.1227 85.9946 55.8 85.5466 56.28C85.1093 56.76 84.4693 57 83.6266 57ZM90.2316 45.64H92.6156L94.4396 56.84H92.6796L92.3596 54.616V54.648H90.3596L90.0396 56.84H88.4076L90.2316 45.64ZM92.1516 53.128L91.3676 47.592H91.3356L90.5676 53.128H92.1516ZM96.8935 45.64H99.5815C100.456 45.64 101.112 45.8747 101.549 46.344C101.987 46.8133 102.205 47.5013 102.205 48.408V54.072C102.205 54.9787 101.987 55.6667 101.549 56.136C101.112 56.6053 100.456 56.84 99.5815 56.84H96.8935V45.64ZM99.5495 55.24C99.8375 55.24 100.056 55.1547 100.205 54.984C100.365 54.8133 100.445 54.536 100.445 54.152V48.328C100.445 47.944 100.365 47.6667 100.205 47.496C100.056 47.3253 99.8375 47.24 99.5495 47.24H98.6535V55.24H99.5495ZM104.993 45.64H109.793V47.24H106.753V50.2H109.169V51.8H106.753V55.24H109.793V56.84H104.993V45.64ZM112.406 45.64H114.918L116.038 53.656H116.07L117.19 45.64H119.702V56.84H118.038V48.36H118.006L116.726 56.84H115.254L113.974 48.36H113.942V56.84H112.406V45.64ZM122.615 45.64H124.375V56.84H122.615V45.64ZM128.654 45.64H131.038L132.862 56.84H131.102L130.782 54.616V54.648H128.782L128.462 56.84H126.83L128.654 45.64ZM130.574 53.128L129.79 47.592H129.758L128.99 53.128H130.574ZM139.478 45.64H141.99L143.11 53.656H143.142L144.262 45.64H146.774V56.84H145.11V48.36H145.078L143.798 56.84H142.326L141.046 48.36H141.014V56.84H139.478V45.64ZM152.231 57C151.367 57 150.706 56.7547 150.247 56.264C149.789 55.7733 149.559 55.08 149.559 54.184V48.296C149.559 47.4 149.789 46.7067 150.247 46.216C150.706 45.7253 151.367 45.48 152.231 45.48C153.095 45.48 153.757 45.7253 154.215 46.216C154.674 46.7067 154.903 47.4 154.903 48.296V54.184C154.903 55.08 154.674 55.7733 154.215 56.264C153.757 56.7547 153.095 57 152.231 57ZM152.231 55.4C152.839 55.4 153.143 55.032 153.143 54.296V48.184C153.143 47.448 152.839 47.08 152.231 47.08C151.623 47.08 151.319 47.448 151.319 48.184V54.296C151.319 55.032 151.623 55.4 152.231 55.4ZM157.693 45.64H159.901L161.613 52.344H161.645V45.64H163.213V56.84H161.405L159.293 48.664H159.261V56.84H157.693V45.64ZM168.41 57C167.556 57 166.911 56.76 166.474 56.28C166.036 55.7893 165.818 55.0907 165.818 54.184V53.544H167.482V54.312C167.482 55.0373 167.786 55.4 168.394 55.4C168.692 55.4 168.916 55.3147 169.066 55.144C169.226 54.9627 169.306 54.6747 169.306 54.28C169.306 53.8107 169.199 53.4 168.986 53.048C168.772 52.6853 168.378 52.2533 167.802 51.752C167.076 51.112 166.57 50.536 166.282 50.024C165.994 49.5013 165.85 48.9147 165.85 48.264C165.85 47.3787 166.074 46.696 166.522 46.216C166.97 45.7253 167.62 45.48 168.474 45.48C169.316 45.48 169.951 45.7253 170.378 46.216C170.815 46.696 171.034 47.3893 171.034 48.296V48.76H169.37V48.184C169.37 47.8 169.295 47.5227 169.146 47.352C168.996 47.1707 168.778 47.08 168.49 47.08C167.903 47.08 167.61 47.4373 167.61 48.152C167.61 48.5573 167.716 48.936 167.93 49.288C168.154 49.64 168.554 50.0667 169.13 50.568C169.866 51.208 170.372 51.7893 170.65 52.312C170.927 52.8347 171.066 53.448 171.066 54.152C171.066 55.0693 170.836 55.7733 170.378 56.264C169.93 56.7547 169.274 57 168.41 57ZM175.051 47.24H173.211V45.64H178.651V47.24H176.811V56.84H175.051V47.24ZM181.103 45.64H183.711C184.618 45.64 185.279 45.8533 185.695 46.28C186.111 46.696 186.319 47.3413 186.319 48.216V48.904C186.319 50.0667 185.935 50.8027 185.167 51.112V51.144C185.594 51.272 185.892 51.5333 186.063 51.928C186.244 52.3227 186.335 52.8507 186.335 53.512V55.48C186.335 55.8 186.346 56.0613 186.367 56.264C186.388 56.456 186.442 56.648 186.527 56.84H184.735C184.671 56.6587 184.628 56.488 184.607 56.328C184.586 56.168 184.575 55.88 184.575 55.464V53.416C184.575 52.904 184.49 52.5467 184.319 52.344C184.159 52.1413 183.876 52.04 183.471 52.04H182.863V56.84H181.103V45.64ZM183.503 50.44C183.855 50.44 184.116 50.3493 184.287 50.168C184.468 49.9867 184.559 49.6827 184.559 49.256V48.392C184.559 47.9867 184.484 47.6933 184.335 47.512C184.196 47.3307 183.972 47.24 183.663 47.24H182.863V50.44H183.503ZM191.7 57C190.836 57 190.175 56.7547 189.716 56.264C189.257 55.7733 189.028 55.08 189.028 54.184V48.296C189.028 47.4 189.257 46.7067 189.716 46.216C190.175 45.7253 190.836 45.48 191.7 45.48C192.564 45.48 193.225 45.7253 193.684 46.216C194.143 46.7067 194.372 47.4 194.372 48.296V54.184C194.372 55.08 194.143 55.7733 193.684 56.264C193.225 56.7547 192.564 57 191.7 57ZM191.7 55.4C192.308 55.4 192.612 55.032 192.612 54.296V48.184C192.612 47.448 192.308 47.08 191.7 47.08C191.092 47.08 190.788 47.448 190.788 48.184V54.296C190.788 55.032 191.092 55.4 191.7 55.4Z" fill="#134E4A"/>
</g>
<defs>
<filter id="filter0_i_11_5" x="29.57" y="9.16" width="209.86" height="30.68" filterUnits="userSpaceOnUse" color-interpolation-filters="sRGB">
<feFlood flood-opacity="0" result="BackgroundImageFix"/>
<feBlend mode="normal" in="SourceGraphic" in2="BackgroundImageFix" result="shape"/>
<feColorMatrix in="SourceAlpha" type="matrix" values="0 0 0 0 0 0 0 0 0 0 0 0 0 0 0 0 0 0 127 0" result="hardAlpha"/>
<feOffset dx="1.5" dy="2"/>
<feGaussianBlur stdDeviation="0.5"/>
<feComposite in2="hardAlpha" operator="arithmetic" k2="-1" k3="1"/>
<feColorMatrix type="matrix" values="0 0 0 0 0.0745098 0 0 0 0 0.305882 0 0 0 0 0.290196 0 0 0 1 0"/>
<feBlend mode="normal" in2="shape" result="effect1_innerShadow_11_5"/>
</filter>
<filter id="filter1_f_11_5" x="71.692" y="44.48" width="123.68" height="13.52" filterUnits="userSpaceOnUse" color-interpolation-filters="sRGB">
<feFlood flood-opacity="0" result="BackgroundImageFix"/>
<feBlend mode="normal" in="SourceGraphic" in2="BackgroundImageFix" result="shape"/>
<feGaussianBlur stdDeviation="0.5" result="effect1_foregroundBlur_11_5"/>
</filter>
</defs>
</svg>
