<svg width="32" height="32" viewBox="0 0 32 32" fill="none" xmlns="http://www.w3.org/2000/svg">
<path d="M16 20.25C18.3472 20.25 20.25 18.3472 20.25 16C20.25 13.6528 18.3472 11.75 16 11.75C13.6528 11.75 11.75 13.6528 11.75 16C11.75 18.3472 13.6528 20.25 16 20.25Z" stroke="#14B8A6" stroke-width="3" stroke-linecap="round" stroke-linejoin="round"/>
<path d="M22 4H10C6.68629 4 4 6.68629 4 10V22C4 25.3137 6.68629 28 10 28H22C25.3137 28 28 25.3137 28 22V10C28 6.68629 25.3137 4 22 4Z" stroke="#14B8A6" stroke-width="3" stroke-linecap="round" stroke-linejoin="round"/>
<path d="M24.4375 9.5C24.4375 10.5701 23.5701 11.4375 22.5 11.4375C21.4299 11.4375 20.5625 10.5701 20.5625 9.5C20.5625 8.42995 21.4299 7.5625 22.5 7.5625C23.5701 7.5625 24.4375 8.42995 24.4375 9.5Z" fill="#14B8A6" stroke="#14B8A6" stroke-width="0.125"/>
</svg>
