<svg width="32" height="32" viewBox="0 0 32 32" fill="none" xmlns="http://www.w3.org/2000/svg">
<path d="M26.5 4.5H5.5C4.94772 4.5 4.5 4.94772 4.5 5.5V26.5C4.5 27.0523 4.94772 27.5 5.5 27.5H26.5C27.0523 27.5 27.5 27.0523 27.5 26.5V5.5C27.5 4.94772 27.0523 4.5 26.5 4.5Z" stroke="#14B8A6" stroke-width="2" stroke-linecap="round" stroke-linejoin="round"/>
<path d="M15 14V22" stroke="#14B8A6" stroke-width="2" stroke-linecap="round" stroke-linejoin="round"/>
<path d="M11 14V22" stroke="#14B8A6" stroke-width="2" stroke-linecap="round" stroke-linejoin="round"/>
<path d="M15 17.5C15 16.5717 15.3687 15.6815 16.0251 15.0251C16.6815 14.3687 17.5717 14 18.5 14C19.4283 14 20.3185 14.3687 20.9749 15.0251C21.6313 15.6815 22 16.5717 22 17.5V22" stroke="#14B8A6" stroke-width="2" stroke-linecap="round" stroke-linejoin="round"/>
<path d="M12.4375 10C12.4375 10.7939 11.7939 11.4375 11 11.4375C10.2061 11.4375 9.5625 10.7939 9.5625 10C9.5625 9.20609 10.2061 8.5625 11 8.5625C11.7939 8.5625 12.4375 9.20609 12.4375 10Z" fill="#14B8A6" stroke="#14B8A6" stroke-width="0.125"/>
</svg>
